<svg xmlns="http://www.w3.org/2000/svg" width="115.126" height="27.88" viewBox="0 0 115.126 27.88">
    <defs>
        <style>
            .cls-2{fill:#304372}
        </style>
    </defs>
    <g id="Group_22726" transform="translate(0 -10.419)">
        <g id="Layer_2" transform="translate(0 10.419)">
            <g id="Layer_1">
                <path id="Path_112939" fill="#ed6a6d" d="M364.556 41.674v4.049a2.463 2.463 0 0 1-4.915.117v-3.605h-3.75v3.605a2.465 2.465 0 0 1-4.915-.146v-4.04h-3.745v4.2a2.924 2.924 0 0 1-2.346 2.029h-2.131a2.948 2.948 0 0 1-2.465-2.558V39.28h-9.127a6.059 6.059 0 0 0-5.953 6.175v.045a6.058 6.058 0 0 0 5.953 6.175h2.257v-3.746h-2.257a2.454 2.454 0 0 1 0-4.9h5.517v1.951a6.762 6.762 0 0 0 .664 2.95 6.567 6.567 0 0 0 2.928 3.068 6.137 6.137 0 0 0 2.339.664v.022h1.938a6.126 6.126 0 0 0 2.839-.691 6.547 6.547 0 0 0 1.581-1.154 6.365 6.365 0 0 0 8.757.14 6.3 6.3 0 0 0 4.317 1.677l.091.029a6.057 6.057 0 0 0 6.173-5.953v-4.058z" transform="translate(-253.182 -30.58)"/>
                <path id="Rectangle_12586" d="M0 0H3.781V3.781H0z" class="cls-2" transform="translate(29.949 24.099)"/>
                <path id="Rectangle_12587" d="M0 0H3.781V3.781H0z" class="cls-2" transform="translate(34.13 24.099)"/>
                <path id="Path_112940" d="M68.411 0h-4.323s-9.982 10.1-10.133 10.292V12.4h8.5a2.454 2.454 0 0 1 0 4.9H52.77l-2.215-.029a2.946 2.946 0 0 1-2.465-2.551V0h-3.619v14.717a2.948 2.948 0 0 1-2.463 2.558h-1.6a2.943 2.943 0 0 1-2.463-2.558v-4.261H34.33v4.267a2.943 2.943 0 0 1-2.458 2.551h-4.344A6.365 6.365 0 0 0 28 14.87v-.031a6.058 6.058 0 0 0-5.953-6.175h-1.113L28 .8V0h-4.328s-9.984 10.1-10.133 10.292V12.4h8.5a2.456 2.456 0 0 1 .241 4.89h-2.457L0 17.276v3.79h31.523a6.1 6.1 0 0 0 2.839-.689 6.516 6.516 0 0 0 1.772-1.36 6.54 6.54 0 0 0 1.772 1.36 6.117 6.117 0 0 0 2.842.693h.886a6.117 6.117 0 0 0 2.868-.693 6.507 6.507 0 0 0 1.772-1.36 6.549 6.549 0 0 0 1.787 1.36 6.117 6.117 0 0 0 2.842.693h5.316v-.013h6.239a6.057 6.057 0 0 0 5.951-6.175v-.042a6.057 6.057 0 0 0-5.951-6.175h-1.1L68.411.8z" class="cls-2"/>
            </g>
        </g>
    </g>
</svg>
